<?xml version="1.0" encoding="utf-8"?>
<!-- Generator: Adobe Illustrator 27.5.0, SVG Export Plug-In . SVG Version: 6.00 Build 0)  -->
<svg version="1.1" id="Lager_1" xmlns="http://www.w3.org/2000/svg" xmlns:xlink="http://www.w3.org/1999/xlink" x="0px" y="0px"
	 viewBox="0 0 201 232" style="enable-background:new 0 0 201 232;" xml:space="preserve">
<style type="text/css">
	.st0{fill:#F2B138;}
	.st1{fill:#4E4E4E;}
</style>
<g>
	<path d="M8.73,194.06c-3.08,0-5.32-0.47-6.74-1.4c-1.33-1.04-2-2.59-2-4.67V8.25c0-3.01,0.5-5.14,1.5-6.38C2.58,0.62,4.28,0,6.61,0
		h44.91C64.5,0,75.98,3.89,85.96,11.67c10.06,7.68,15.1,21.84,15.1,42.48c0,15.35-2.87,27.28-8.61,35.79
		c-5.74,8.4-12.18,14.06-19.34,16.96c-7.15,2.8-13.6,4.2-19.34,4.2H19.34v76.88c0,2.07-0.71,3.63-2.12,4.67
		c-1.41,0.93-3.62,1.4-6.61,1.4H8.73z M54.02,90.1c3.74,0,7.65-0.99,11.73-2.96c4.08-2.07,7.61-5.76,10.6-11.05
		c2.99-5.39,4.49-12.71,4.49-21.94c0-12.35-2.95-20.96-8.86-25.83c-5.82-4.88-12.85-7.31-21.08-7.31H19.34v69.1H54.02z"/>
</g>
<g>
	<path class="st0" d="M140.48,37.65c3.08-0.02,5.33,0.43,6.75,1.35c1.34,1.03,2.01,2.58,2.03,4.65l1.13,179.73
		c0.02,3.01-0.47,5.14-1.46,6.39c-1.07,1.25-2.77,1.89-5.1,1.9L98.91,232c-12.97,0.09-24.48-3.72-34.51-11.43
		c-10.11-7.61-15.23-21.73-15.36-42.38c-0.1-15.36,2.7-27.3,8.38-35.85c5.69-8.44,12.1-14.14,19.23-17.1
		c7.13-2.85,13.57-4.3,19.31-4.34l34.43-0.24l-0.48-76.87c-0.01-2.07,0.68-3.64,2.09-4.68c1.41-0.94,3.61-1.43,6.6-1.45
		L140.48,37.65z M95.85,141.91c-3.74,0.03-7.65,1.04-11.71,3.04c-4.06,2.1-7.57,5.81-10.53,11.12c-2.96,5.42-4.41,12.74-4.35,21.97
		c0.08,12.34,3.08,20.94,9.02,25.77c5.85,4.84,12.9,7.22,21.13,7.17l31.56-0.22l-0.43-69.09L95.85,141.91z"/>
</g>
<g>
	<path class="st1" d="M188.4,194.06c-3.08,0-5.32-0.47-6.74-1.4c-1.41-1.04-2.12-2.59-2.12-4.67v-18.21c0-4.05,2.95-6.07,8.86-6.07
		h3.74c5.9,0,8.86,2.02,8.86,6.07v18.21c0,2.07-0.71,3.63-2.12,4.67c-1.42,0.93-3.66,1.4-6.74,1.4H188.4z"/>
</g>
</svg>
